<svg xmlns="http://www.w3.org/2000/svg" viewBox="0 0 48 48">
  <defs>
    <style>
      .c {
        fill: none;
        stroke: currentColor;
        stroke-linecap: round;
        stroke-linejoin: round;
      }
    </style>
  </defs>
  <circle cx="15.64" cy="13.46" r=".75" />
  <path
    d="M15.64 16.93v14.98M33.11 31.91V22.3a5.83 5.83 0 0 0-5.82-5.82 5.83 5.83 0 0 0-5.83 5.82v9.61M21.46 22.3v-5.37"
    class="c"
  />
  <path
    d="M40.5 5.5h-33a2 2 0 0 0-2 2v33a2 2 0 0 0 2 2h33a2 2 0 0 0 2-2v-33a2 2 0 0 0-2-2z"
    class="c"
  />
</svg>
