<svg xmlns="http://www.w3.org/2000/svg" width="500" height="100">
  <path d="M12.703 12.042h159.353v76.935H12.703z" style="fill: #fff" />
  <path
    d="M12.699 12.042h37.784v76.935H12.699zM134.278 12.042h37.778v76.935h-37.778zM87.131 28.034l5.407-10.984 5.352 10.583c.67 1.114 1.212 1.028 2.279.487l4.601-2.274-2.993 14.779c-.625 2.906 1.028 3.749 2.813 1.782l6.563-7.001 1.742 3.966c.583 1.204 1.473 1.023 2.64.806l6.781-1.426-2.278 8.568-.046.18c-.264 1.119-.799 2.052.453 2.594l2.407 1.203-13.976 11.834c-1.426 1.467-.936 1.916-.401 3.568l1.294 3.968-13.039-2.36c-1.6-.399-2.719-.399-2.767.895l.538 14.951h-3.932l.542-14.91c0-1.473-1.12-1.426-3.756-.885L75.302 70.67l1.562-3.968c.535-1.52.67-2.551-.537-3.568L62.04 51.475l2.637-1.605c.758-.581.806-1.208.402-2.504l-2.68-8.707 6.875 1.472c1.922.446 2.457 0 2.949-1.064l1.921-3.935 6.785 7.683c1.207 1.42 2.904.496 2.366-1.561L80.038 25.22l5.039 2.9c.803.492 1.653.627 2.147-.31"
    style="fill: red"
  />
  <path
    d="M266.438 44.569h-3.547l-.843-3.723c-2.976 3.37-5.678 4.479-9.534 4.479-9.489 0-15.167-7.537-15.167-16.587 0-9.044 5.677-16.583 15.167-16.583 6.916 0 12.728 3.681 13.567 10.818h-5.409c-.531-4.17-4.168-6.299-8.158-6.299-6.788 0-9.623 5.987-9.623 12.063 0 6.077 2.835 12.067 9.623 12.067 5.678.082 8.781-3.333 8.869-8.696h-8.426V27.9h13.48v16.669M282.268 45.191c7.363 0 11.575-5.057 11.575-12.108 0-7.005-4.212-12.059-11.575-12.059s-11.572 5.053-11.572 12.059c-.001 7.051 4.208 12.108 11.572 12.108m0-3.989c-4.521 0-6.519-4.127-6.519-8.119 0-3.942 1.996-8.066 6.519-8.066 4.521 0 6.522 4.124 6.522 8.066 0 3.992-2.001 8.119-6.522 8.119zM295.793 21.643h5.501l5.807 17.603h.088l5.589-17.603h5.236l-8.205 22.926h-5.677l-8.339-22.926M341.871 34.414c.842-6.871-3.593-13.389-10.821-13.389-6.834 0-11.086 5.585-11.086 12.108 0 7.046 4.037 12.059 11.219 12.059 5.012 0 9.269-2.792 10.374-7.805h-4.786c-.892 2.526-2.662 3.816-5.588 3.816-4.211 0-6.164-3.197-6.164-6.789h16.852m-16.852-3.325c.133-3.42 2.529-6.072 6.031-6.072 3.412 0 5.59 2.883 5.765 6.072h-11.796zM345.73 21.643h4.743v4.435h.089c.575-2.441 3.593-5.053 6.694-5.053 1.151 0 1.469.085 1.903.131v4.881c-.705-.095-1.462-.226-2.168-.226-3.461 0-6.21 2.792-6.21 7.851V44.57h-5.054V21.643M361.339 21.643h4.789v3.374l.088.086c1.506-2.526 4.12-4.079 7.141-4.079 4.97 0 8.113 2.658 8.113 7.799v15.745h-5.055V30.154c-.088-3.586-1.504-5.138-4.479-5.138-3.371 0-5.544 2.652-5.544 6.027v13.525h-5.053V21.643M386.791 21.643h4.791v3.192h.133c1.507-2.259 3.415-3.811 7.051-3.811 2.796 0 5.409 1.196 6.429 3.811 1.687-2.354 3.858-3.811 7.184-3.811 4.838 0 7.675 2.129 7.675 7.714v15.831H415V31.18c0-3.638-.223-6.164-4.174-6.164-3.413 0-4.878 2.26-4.878 6.117v13.436h-5.053V29.848c0-3.149-.974-4.832-4.037-4.832-2.613 0-5.013 2.129-5.013 5.937v13.616h-5.055V21.643M446.17 34.414c.846-6.871-3.589-13.389-10.816-13.389-6.829 0-11.088 5.585-11.088 12.108 0 7.046 4.037 12.059 11.221 12.059 5.012 0 9.266-2.792 10.375-7.805h-4.786c-.892 2.526-2.663 3.816-5.589 3.816-4.214 0-6.169-3.197-6.169-6.789h16.852m-16.854-3.325c.136-3.42 2.531-6.072 6.035-6.072 3.412 0 5.591 2.883 5.767 6.072h-11.802zM450.03 21.643h4.788v3.374l.087.086c1.511-2.526 4.126-4.079 7.142-4.079 4.971 0 8.118 2.658 8.118 7.799v15.745h-5.056V30.154c-.086-3.586-1.511-5.138-4.481-5.138-3.371 0-5.543 2.652-5.543 6.027v13.525h-5.055V21.643M473.181 21.643h3.81v-6.876h5.055v6.876h4.572v3.77h-4.572v12.239c0 2.086.181 3.153 2.442 3.153.709 0 1.421 0 2.13-.18v3.903c-1.108.085-2.173.261-3.284.261-5.278 0-6.254-2.034-6.343-5.85V25.413h-3.81v-3.77M248.609 89.539c7.366 0 11.573-5.061 11.573-12.107 0-7.01-4.207-12.063-11.573-12.063-7.362 0-11.577 5.055-11.577 12.063.001 7.047 4.216 12.107 11.577 12.107m0-3.992c-4.523 0-6.516-4.123-6.516-8.115 0-3.945 1.993-8.068 6.516-8.068s6.52 4.123 6.52 8.068c0 3.992-1.996 8.115-6.52 8.115zM262.136 65.986h3.771v-1.899c0-5.856 3.06-6.833 6.343-6.833 1.595 0 2.75.086 3.547.311v3.947c-.664-.181-1.328-.267-2.351-.267-1.379 0-2.484.483-2.484 2.391v2.353h4.3v3.771h-4.3v19.16h-5.055V69.76h-3.771v-3.774M312.778 67.318c-.934-3.637-3.285-6.295-7.896-6.295-6.782 0-9.622 5.987-9.622 12.059 0 6.082 2.84 12.068 9.622 12.068 4.926 0 7.627-3.68 8.072-8.297h5.414c-.443 7.584-5.813 12.817-13.486 12.817-9.485 0-15.164-7.539-15.164-16.59 0-9.048 5.679-16.586 15.164-16.586 7.144.045 12.774 3.991 13.441 10.821h-5.545M341.913 72.02c0-4.832-4.702-6.651-9.176-6.651-5.063 0-10.072 1.729-10.425 7.63h5.055c.221-2.484 2.218-3.635 5.058-3.635 2.037 0 4.745.479 4.745 3.103 0 2.97-3.239 2.572-6.874 3.234-4.259.489-8.828 1.417-8.828 7.141 0 4.479 3.729 6.699 7.851 6.699 2.706 0 5.944-.842 7.938-2.796.398 2.085 1.863 2.796 3.904 2.796.842 0 2.438-.312 3.191-.577v-3.5c-.529.085-.932.085-1.243.085-.932 0-1.195-.491-1.195-1.729v-11.8m-5.058 9.179c0 3.193-3.458 4.348-5.675 4.348-1.773 0-4.654-.662-4.654-2.927 0-2.661 1.948-3.456 4.124-3.815 2.218-.396 4.651-.354 6.204-1.373l.001 3.767zM347.369 65.986h4.785v3.375l.092.086c1.508-2.526 4.126-4.08 7.138-4.08 4.965 0 8.117 2.658 8.117 7.807v15.744h-5.055V74.504c-.089-3.591-1.509-5.143-4.48-5.143-3.366 0-5.544 2.656-5.544 6.024v13.531h-5.053v-22.93M392.027 72.02c0-4.832-4.704-6.651-9.187-6.651-5.052 0-10.061 1.729-10.416 7.63h5.052c.225-2.484 2.218-3.635 5.056-3.635 2.04 0 4.748.479 4.748 3.103 0 2.97-3.237 2.572-6.873 3.234-4.258.489-8.828 1.417-8.828 7.141 0 4.479 3.724 6.699 7.851 6.699 2.707 0 5.943-.842 7.938-2.796.396 2.085 1.863 2.796 3.905 2.796.838 0 2.438-.312 3.189-.577v-3.5c-.536.085-.933.085-1.242.085-.934 0-1.193-.491-1.193-1.729v-11.8m-5.061 9.179c0 3.193-3.455 4.348-5.672 4.348-1.771 0-4.653-.662-4.653-2.927 0-2.661 1.946-3.456 4.118-3.815 2.217-.396 4.656-.354 6.207-1.373v3.767zM419.078 57.254h-5.06v11.707h-.089c-1.554-2.527-4.744-3.594-7.626-3.594-5.012 0-9.933 3.638-9.933 11.93 0 6.875 3.5 12.242 10.73 12.242 2.883 0 5.766-1.107 7.096-3.73h.088v3.109h4.792l.002-31.664m-17.652 20.437c0-4.123 1.688-8.33 6.432-8.33 3.903 0 6.342 3.019 6.342 8.07 0 3.991-1.907 8.114-6.431 8.114-4.393.002-6.343-3.899-6.343-7.854zM443.777 72.02c0-4.832-4.703-6.651-9.18-6.651-5.058 0-10.067 1.729-10.421 7.63h5.054c.222-2.484 2.217-3.635 5.053-3.635 2.043 0 4.749.479 4.749 3.103 0 2.97-3.238 2.572-6.872 3.234-4.261.489-8.828 1.417-8.828 7.141 0 4.479 3.728 6.699 7.851 6.699 2.704 0 5.943-.842 7.938-2.796.396 2.085 1.86 2.796 3.904 2.796.841 0 2.438-.312 3.191-.577v-3.5c-.532.085-.935.085-1.241.085-.931 0-1.197-.491-1.197-1.729l-.001-11.8m-5.053 9.179c0 3.193-3.461 4.348-5.677 4.348-1.774 0-4.658-.662-4.658-2.927 0-2.661 1.951-3.456 4.12-3.815 2.22-.396 4.663-.354 6.215-1.373v3.767z"
  />
</svg>
