<svg xmlns="http://www.w3.org/2000/svg" width="1335" height="179" fill="none">
  <path
    fill="#000"
    d="M30.76 114.44V.37H0v139.94h99v-25.87H30.76ZM204.4 67.7a47.376 47.376 0 0 0-10.58-16.86 47.554 47.554 0 0 0-16.57-10.78 58.62 58.62 0 0 0-21.66-3.82 57.812 57.812 0 0 0-21.55 3.82 47.781 47.781 0 0 0-16.47 10.78A47.224 47.224 0 0 0 107 67.7a62.23 62.23 0 0 0-3.73 22 61.476 61.476 0 0 0 3.73 22 47.375 47.375 0 0 0 10.57 16.75 46.302 46.302 0 0 0 16.47 10.68 59.061 59.061 0 0 0 21.55 3.72 59.892 59.892 0 0 0 21.66-3.72 46.109 46.109 0 0 0 16.57-10.68 47.539 47.539 0 0 0 10.58-16.8 61.676 61.676 0 0 0 3.72-22 62.482 62.482 0 0 0-3.72-21.95Zm-25.28 33.9a31.653 31.653 0 0 1-4 10.39 21.363 21.363 0 0 1-7.64 7.35 23.614 23.614 0 0 1-11.87 2.73 22.997 22.997 0 0 1-11.75-2.73 21.685 21.685 0 0 1-7.55-7.35 32.108 32.108 0 0 1-4-10.39 59.584 59.584 0 0 1-1.16-11.87 61.192 61.192 0 0 1 1.16-12 30.922 30.922 0 0 1 4-10.38 22.905 22.905 0 0 1 7.55-7.36 22.522 22.522 0 0 1 11.75-2.83c4.15-.126 8.257.869 11.89 2.88a22.546 22.546 0 0 1 7.64 7.36 30.513 30.513 0 0 1 4 10.38 61.278 61.278 0 0 1 1.18 12 59.604 59.604 0 0 1-1.2 11.87v-.05ZM318.06 65.55a49.087 49.087 0 0 0-9.71-16.57 38.447 38.447 0 0 0-13.42-9.61 38.668 38.668 0 0 0-15.08-3.13 47.168 47.168 0 0 0-18.14 3.62 29.756 29.756 0 0 0-13.8 11.47h-.4v-51h-27.82v139.98h26.45v-12.94h.39a25.33 25.33 0 0 0 13.33 11.95 53.228 53.228 0 0 0 20 3.52 38.32 38.32 0 0 0 15.08-3.13 38.523 38.523 0 0 0 13.42-9.6 48.948 48.948 0 0 0 9.71-16.56c2.48-6.727 3.723-14.727 3.73-24 .007-9.273-1.24-17.273-3.74-24Zm-25.48 36.34a32.15 32.15 0 0 1-4.31 10.38 22.414 22.414 0 0 1-7.34 7.17 20.548 20.548 0 0 1-10.68 2.63 20.672 20.672 0 0 1-10.59-2.63 22.365 22.365 0 0 1-7.45-7.17 32.138 32.138 0 0 1-4.3-10.38 53.018 53.018 0 0 1-1.41-12.16 53.8 53.8 0 0 1 1.38-12.33 32.114 32.114 0 0 1 4.3-10.39 22.204 22.204 0 0 1 7.45-7.15 20.478 20.478 0 0 1 10.59-2.65 20.358 20.358 0 0 1 10.68 2.65 22.26 22.26 0 0 1 7.34 7.15 32.102 32.102 0 0 1 4.31 10.39 53.795 53.795 0 0 1 1.37 12.33 53.04 53.04 0 0 1-1.34 12.16ZM334.32.37v139.94h27.84V.37h-27.84ZM470.73 130.89a104.242 104.242 0 0 1-.78-13.12V65.05c0-6.14-1.39-11.07-4.12-14.79a28.251 28.251 0 0 0-10.59-8.73 47.41 47.41 0 0 0-14.3-4.21 114.919 114.919 0 0 0-15.44-1.08 84.527 84.527 0 0 0-16.76 1.67 47.678 47.678 0 0 0-15 5.58 33.416 33.416 0 0 0-11 10.39c-2.88 4.31-4.5 9.73-4.9 16.27h27.82c.54-5.487 2.373-9.41 5.5-11.77 3.14-2.35 7.44-3.52 12.94-3.52a48.849 48.849 0 0 1 6.95.48 15.79 15.79 0 0 1 5.69 2c1.648 1 2.998 2.422 3.91 4.12a14.61 14.61 0 0 1 1.47 7.15c.13 2.87-.72 5.07-2.55 6.57a18.642 18.642 0 0 1-7.44 3.41 71.724 71.724 0 0 1-10.78 1.77c-4.053.4-8.17.923-12.35 1.57a114.866 114.866 0 0 0-12.44 2.65 35.34 35.34 0 0 0-11 5 25.41 25.41 0 0 0-7.84 8.92c-2 3.72-3 8.453-3 14.2a31.656 31.656 0 0 0 2.65 13.52 25.483 25.483 0 0 0 7.35 9.42 30.923 30.923 0 0 0 11 5.48 49.986 49.986 0 0 0 13.52 1.75 62.892 62.892 0 0 0 18.42-2.73 36.54 36.54 0 0 0 15.68-9.6 41.28 41.28 0 0 0 .69 5c.319 1.625.74 3.228 1.26 4.8h28.21c-1.333-2.12-2.257-5.27-2.77-9.45Zm-28.62-29.79a57.048 57.048 0 0 1-.48 6.29 21.422 21.422 0 0 1-2.65 7.73 18.425 18.425 0 0 1-6.67 6.57c-3 1.83-7.25 2.73-12.74 2.73-2.17.01-4.336-.184-6.47-.58a15.72 15.72 0 0 1-5.48-2 10.6 10.6 0 0 1-3.72-4 13.19 13.19 0 0 1-1.38-6.28 13.52 13.52 0 0 1 1.38-6.45 12.563 12.563 0 0 1 3.62-4.22 17.9 17.9 0 0 1 5.3-2.65 48.934 48.934 0 0 1 6.17-1.59c2.22-.4 4.43-.72 6.67-1s4.33-.59 6.36-1c1.929-.353 3.83-.84 5.69-1.46a12.293 12.293 0 0 0 4.4-2.45v10.36ZM604.42 40.06l-18.62 68.59h-.38l-17.26-68.59h-27l-16.86 68.79h-.4l-18.62-68.79h-29.39l32.14 101.32h28.81l17.25-68h.38l18 68h28.61l31.95-101.32h-28.61ZM1005.89 73.8a55.436 55.436 0 0 0-8.95-19.29 43.503 43.503 0 0 0-3.7-4.4 45.922 45.922 0 0 0-12.14-9.08c-6.427-3.333-13.97-5-22.63-5a52.59 52.59 0 0 0-21.16 4.14 49.812 49.812 0 0 0-16.43 11.31 49.13 49.13 0 0 0-9.25 13.76c-.49 1.07-1 2.15-1.38 3.26a59.475 59.475 0 0 0-3.75 21.24 61.898 61.898 0 0 0 3.64 21.65 49.174 49.174 0 0 0 10.36 16.92 43.543 43.543 0 0 0 9 7.25 48.043 48.043 0 0 0 7.35 3.67 52.343 52.343 0 0 0 10.48 2.92c3.69.624 7.427.932 11.17.92 11.54 0 21.377-2.623 29.51-7.87 8.133-5.247 14.17-13.973 18.11-26.18H981.5c-.92 3.147-3.413 6.147-7.48 9a24.92 24.92 0 0 1-14.52 4.19c-7.873 0-13.91-2.033-18.11-6.1a20.803 20.803 0 0 1-5.16-8.88 42.245 42.245 0 0 1-1.73-10.8h73.4a71.859 71.859 0 0 0-2.01-22.63Zm-71.39 4.92c.184-2.269.61-4.511 1.27-6.69a20.43 20.43 0 0 1 3.73-7.09 21.077 21.077 0 0 1 7.08-5.61 24.429 24.429 0 0 1 11.12-2.26c6.21 0 11 1.54 14.29 4.59.33.3.66.59 1 .92 3.333 3.667 5.667 9.047 7 16.14H934.5ZM1116.19 77.93v62.58h-27.94V83.05c0-8.4-1.31-14.667-3.94-18.8-2.19-3.45-5.81-5.43-10.83-6-1.04-.13-2.09-.197-3.14-.2-7.61 0-13.12 2.263-16.53 6.79-2.15 2.86-3.62 6.88-4.42 12.06-.49 3.404-.72 6.84-.7 10.28v53.33h-27.94V38.77h26.57v14.17h.59a35.705 35.705 0 0 1 5.83-7.39 30.58 30.58 0 0 1 7.94-5.5 39.859 39.859 0 0 1 17.32-4c7.48 0 13.8 1.1 18.4 3a30.674 30.674 0 0 1 6.71 3.87 25.088 25.088 0 0 1 4.61 4.6 32.713 32.713 0 0 1 5.78 13.19 81.639 81.639 0 0 1 1.69 17.22ZM1229.27 101.55c-1.85 13.513-7.1 23.81-15.77 30.89a46.352 46.352 0 0 1-21.36 9.6 65.82 65.82 0 0 1-11.15 1h-.75c-4.17.014-8.34-.411-12.42-1.27a51.444 51.444 0 0 1-8.07-2.39l-.47-.18a46.426 46.426 0 0 1-16.23-10.72 48.769 48.769 0 0 1-10.43-16.44 56.847 56.847 0 0 1-3.74-21c0-1.39 0-2.76.12-4.11a66.107 66.107 0 0 1 3.32-17.84 49.448 49.448 0 0 1 10.18-17.44c2.42-2.65 5.16-5 8.14-7a48.363 48.363 0 0 1 8.19-4.47 55.438 55.438 0 0 1 22-4.14c5.89-.018 11.75.776 17.42 2.36a46.492 46.492 0 0 1 14.95 7.19 38.284 38.284 0 0 1 10.73 12 38.24 38.24 0 0 1 4.72 17h-27.35c-1.84-11.673-8.73-17.51-20.66-17.51-3.96-.153-7.87.892-11.22 3a24.29 24.29 0 0 0-7.38 7.87v.06a33.711 33.711 0 0 0-4 10.57 57.797 57.797 0 0 0-1.19 11.51c.02 3.668.39 7.326 1.13 10.92l.06.3c.71 3.63 2.01 7.122 3.83 10.34a22.109 22.109 0 0 0 7.19 7.58 17.57 17.57 0 0 0 5 2.21c1.96.505 3.98.753 6 .74h.09c6.67 0 11.78-1.87 15.35-5.61 3.57-3.74 5.83-8.74 6.79-15l26.98-.02ZM867.23 38.77v13.58h-.39c-3.42-5.913-7.653-10.113-12.7-12.6a39.349 39.349 0 0 0-17.64-3.74 48.729 48.729 0 0 0-5.88.36 38.359 38.359 0 0 0-12.92 3.78 40.317 40.317 0 0 0-13.67 11.12 49.371 49.371 0 0 0-8.37 16.13c-.51 1.64-.94 3.3-1.32 5a63.94 63.94 0 0 0-1.53 14 80.772 80.772 0 0 0 .8 11.46c.39 2.803.945 5.581 1.66 8.32a49.99 49.99 0 0 0 3 8.28 42.842 42.842 0 0 0 4.81 8 37.281 37.281 0 0 0 13.58 11c5.507 2.667 12.067 4 19.68 4 6.08.02 12.09-1.291 17.61-3.84.37-.17.72-.36 1.08-.54a27.616 27.616 0 0 0 11.47-10.77c.09-.17.2-.33.3-.49h.39v13.38a30.809 30.809 0 0 1-2.26 12.77 23.596 23.596 0 0 1-3 5.14c-3.607 4.72-9.347 7.08-17.22 7.08a27.574 27.574 0 0 1-13.18-3c-3.813-2.04-6.373-5.68-7.68-10.92h-27.74a29.298 29.298 0 0 0 4.82 14.86 34.907 34.907 0 0 0 10.62 10.13 48.755 48.755 0 0 0 14.17 5.81 65.419 65.419 0 0 0 15.25 1.87c11.68 0 21.013-1.577 28-4.73a55.886 55.886 0 0 0 5.24-2.69 38.274 38.274 0 0 0 10.7-8.82 34.43 34.43 0 0 0 7.18-14.66c.45-2.1.78-4.07 1.05-6 .392-2.649.603-5.322.63-8V38.77h-26.54Zm-1.48 60.12a29.397 29.397 0 0 1-2.12 5.25 27.946 27.946 0 0 1-2.3 3.7 21.813 21.813 0 0 1-7.48 6.3 20.843 20.843 0 0 1-4 1.55c-2.095.55-4.254.822-6.42.81a22.998 22.998 0 0 1-7.16-1 16.457 16.457 0 0 1-3.67-1.71 22.554 22.554 0 0 1-2.34-1.74 19.15 19.15 0 0 1-1.75-1.62 21.231 21.231 0 0 1-2.89-3.73 29.438 29.438 0 0 1-3.74-9.74 55.689 55.689 0 0 1-1.08-10.92c0-1.29.06-2.56.16-3.82a44.362 44.362 0 0 1 1.11-7.1 27.013 27.013 0 0 1 4.14-9.25 21.347 21.347 0 0 1 7.08-6.4 20.078 20.078 0 0 1 9.36-2.34h.78a22.91 22.91 0 0 1 11.4 2.52 20.394 20.394 0 0 1 7.28 6.89 29.732 29.732 0 0 1 3.94 9.93c.34 1.65.6 3.35.8 5.08.25 2.268.377 4.548.38 6.83a37.007 37.007 0 0 1-1.48 10.51ZM784.56 118.89l-8.32-22.24-14.15-37.86-19.77-52.87-2.17-5.78-.41-.14h-31.32l-35.76 94.57-17.38 45.94h31.1l10.58-30.05.44-1.24h52.54l8.58 25.25 2.05 6h32.07l-8.08-21.58ZM705.5 86.2l18.27-51.55h.39l14.16 41.21 3.55 10.35-36.37-.01ZM1275.22 83.93l6.53 19.76 1.56 4.73h.39l1.69-5.29 5.34-16.72 7.33-23 .48-1.51 7.4-23.19h28.93l-8.37 22.6-1.29 3.45-11 29.52-3.31 8.89-18.56 49.93c-3.02 8.26-7.22 14.163-12.59 17.71-5.37 3.547-12.85 5.317-22.44 5.31-2.89 0-5.75-.1-8.56-.3-2.81-.2-5.67-.427-8.56-.68v-23l8.07.79c2.75.261 5.51.328 8.27.2 3.67-.4 6.39-1.843 8.16-4.33a14.027 14.027 0 0 0 2.66-8.27 16.77 16.77 0 0 0-1.18-6.3l-8.52-22.82-5.64-15.11-4.42-11.86-17-45.65h29.71l14.74 44.58"
  />
</svg>
