<svg xmlns="http://www.w3.org/2000/svg" width="67" height="38">
  <path
    fill="#191919"
    d="M0 .824v14.41h10.425v-2.66H3.246V.824H0ZM16.6 13.353c1.997 0 2.597-1.677 2.597-3.33 0-1.677-.6-3.354-2.597-3.354-1.985 0-2.585 1.677-2.585 3.354 0 1.653.6 3.33 2.585 3.33Zm0-8.84c3.369 0 5.537 2.18 5.537 5.51 0 3.306-2.168 5.486-5.537 5.486-3.345 0-5.513-2.18-5.513-5.486 0-3.33 2.168-5.51 5.513-5.51ZM28.84 6.681c-1.739 0-2.498 1.593-2.498 3.354 0 1.737.76 3.33 2.499 3.33 1.74 0 2.499-1.593 2.499-3.33-.012-1.76-.772-3.354-2.5-3.354ZM23.513.824h2.928V6.07h.036c.723-1.066 2.046-1.557 3.37-1.557 2.131 0 4.422 1.677 4.422 5.486 0 3.833-2.291 5.51-4.423 5.51-1.568 0-2.866-.467-3.503-1.617h-.037v1.341h-2.781V.824h-.012ZM38.614.824h-2.927v14.41h2.928V.823ZM47.055 10.13c-.49.42-1.531.444-2.438.612-.906.18-1.74.479-1.74 1.533 0 1.066.846 1.33 1.802 1.33 2.29 0 2.376-1.773 2.376-2.408V10.13Zm-6.762-2.12c.159-2.682 2.621-3.485 5.01-3.485 2.132 0 4.68.468 4.68 2.97v5.427c0 .946.098 1.892.368 2.323h-2.977a4.743 4.743 0 0 1-.209-1.006c-.93.946-2.29 1.294-3.589 1.294-2.021 0-3.639-.994-3.639-3.126 0-2.36 1.814-2.923 3.639-3.174 1.8-.264 3.467-.204 3.467-1.378 0-1.234-.87-1.413-1.899-1.413-1.115 0-1.837.443-1.935 1.569h-2.916ZM63.632 15.233h-3.014l-1.899-7.007h-.037l-1.825 7.007H53.83L50.437 4.801h3.1l1.96 7.079h.037L57.31 4.8h2.855l1.813 7.068h.049l1.96-7.067H67l-3.37 10.432ZM8.71 18.94a4.908 4.908 0 0 1 2.536 1.845c.515.719.87 1.51 1.054 2.348.184.838.282 1.64.282 2.407 0 1.929-.392 3.57-1.189 4.911-1.078 1.809-2.732 2.707-4.986 2.707H0v-14.54h6.407c.919.023 1.69.119 2.303.323Zm-5.696 2.204v9.475H5.88c1.47 0 2.487-.707 3.063-2.12.319-.779.478-1.701.478-2.767 0-1.473-.233-2.611-.71-3.402-.478-.79-1.422-1.185-2.83-1.185H3.013ZM17.212 21.12h-2.916v-2.587h2.916v2.587ZM14.308 22.4h2.916v10.744h-2.916V22.401ZM25.018 22.39c.699.287 1.262.802 1.691 1.557V22.4h2.805v10.193c0 1.39-.232 2.432-.71 3.139-.82 1.21-2.389 1.808-4.717 1.808-1.409 0-2.548-.263-3.43-.802-.882-.54-1.372-1.342-1.47-2.42h3.124c.086.324.208.563.392.707.306.251.833.383 1.568.383 1.03 0 1.727-.335 2.07-1.018.233-.431.343-1.162.343-2.192v-.695c-.269.456-.575.803-.882 1.03-.575.432-1.31.635-2.23.635-1.408 0-2.535-.479-3.38-1.449-.846-.97-1.262-2.276-1.262-3.94 0-1.594.404-2.935 1.212-4.025.81-1.09 1.96-1.629 3.455-1.629.54.024 1.017.108 1.421.264Zm.98 7.701c.466-.491.699-1.282.699-2.372 0-1.018-.22-1.796-.662-2.323-.44-.527-1.029-.803-1.764-.803-1.005 0-1.69.468-2.083 1.39-.196.49-.306 1.102-.306 1.82 0 .623.11 1.174.319 1.665.392.91 1.078 1.366 2.082 1.366.686 0 1.25-.24 1.715-.743ZM34.732 21.12h-2.916v-2.587h2.916v2.587ZM31.816 22.4h2.916v10.744h-2.916V22.401ZM35.969 24.51v-2.001H37.5v-2.994h2.842v2.994h1.789v2h-1.789v5.678c0 .443.062.718.172.826.11.108.465.168 1.053.168h.282c.098 0 .196-.012.282-.012v2.096l-1.36.048c-1.36.048-2.279-.18-2.78-.695-.32-.323-.479-.814-.479-1.485v-6.624H35.97ZM47.912 26.617c.539-.06.919-.143 1.151-.251.417-.168.625-.431.625-.802 0-.444-.16-.743-.478-.91-.318-.169-.784-.252-1.396-.252-.686 0-1.176.167-1.458.49-.208.24-.343.576-.404.983h-2.77c.062-.934.332-1.713.81-2.312.759-.946 2.07-1.413 3.932-1.413 1.213 0 2.279.228 3.222.695.943.467 1.409 1.341 1.409 2.635v4.922c0 .336.012.755.024 1.246.025.371.074.623.172.755.098.132.233.24.429.323v.42h-3.124a3.391 3.391 0 0 1-.184-.611 7.705 7.705 0 0 1-.086-.647c-.404.419-.858.778-1.384 1.078a4.255 4.255 0 0 1-2.107.527c-1.005 0-1.826-.276-2.475-.839-.65-.55-.98-1.341-.98-2.36 0-1.317.527-2.275 1.568-2.862.576-.323 1.421-.551 2.536-.695l.968-.12Zm1.752 1.306a3.953 3.953 0 0 1-.552.276 4.422 4.422 0 0 1-.772.191l-.649.12c-.612.108-1.053.228-1.323.383-.453.252-.674.66-.674 1.198 0 .48.135.826.417 1.042.282.216.612.323 1.004.323.625 0 1.201-.18 1.74-.526.527-.36.809-1.007.82-1.94v-1.067h-.011ZM57.566 33.146h-2.867V18.617h2.867v14.529Z"
  />
</svg>
