<svg
  xmlns="http://www.w3.org/2000/svg"
  width="446.2"
  height="60.8"
  version="1.1"
  viewBox="0 0 118.057 16.087"
>
  <g transform="translate(4.335 -309.103)">
    <g transform="translate(.265 -.265)">
      <path
        d="M10.693 309.897H-4.335v7.514a7.51 7.51 0 0 0 7.514 7.514h7.514z"
        style="fill: #003da5; stroke-width: 0.26458332"
      />
      <path
        d="m30.6 10.1 3 5.7 3.2-1-1.5 9.1L40 20l1.1 2.3 4.8-.6-1.1 5.7 1.8 1.3-7.7 7.1.3 3-7-.5-.1 1.9.1 6.8-1.7.1h-1.8l.3-7v-1.8l-7.2.6.5-3.1-7.8-6.9 1.6-1.6-1.2-6.2 5.1 1.1 1-2.2 4.6 4.4-1.5-9.7 3.4 1z"
        style="fill: #da291c"
        transform="matrix(.26458 0 0 .26458 -4.547 309.473)"
      />
      <path
        d="M223.4 17.9v7.5h15.2v14.8h-15.2v18.2h-20.8V1.6h38.1v16.3z"
        transform="matrix(.26458 0 0 .26458 -4.547 309.473)"
      />
      <path
        d="M73.823 309.897H79.3v15.055h-5.477z"
        style="stroke-width: 0.26458332"
      />
      <path
        d="M70.118 318.945c1.905-.661 2.726-1.64 2.726-3.836 0-3.784-2.884-5.239-6.271-5.239h-6.615v15.055h5.345v-4.816h.106l1.799 4.842h6.297zm-4.418-2.381h-.37v-2.566h.423c.926 0 1.746.132 1.746 1.296 0 1.111-.9 1.27-1.8 1.27"
        style="stroke-width: 0.26458332"
      />
      <path
        d="M356.4 58.4V40.2h-13.1V1.6h-20.7v56.8z"
        transform="matrix(.26458 0 0 .26458 -4.547 309.473)"
      />
      <path
        d="m107.001 315.506-1.243-.291c-.424-.106-1.085-.186-1.085-.741 0-.609.688-.794 1.164-.794 1.164 0 2.25.344 3.175.979l1.482-3.704c-1.482-.9-3.043-1.323-4.763-1.323-3.28 0-6.535 1.984-6.535 5.556 0 2.355 1.8 3.625 3.942 3.995l1.085.212c.503.106 1.217.159 1.217.847s-.846.9-1.402.9c-1.27 0-2.434-.16-3.413-.927l-.132-.106v4.842c1.508.053 2.196.238 3.545.238l-.027-.026c.16 0 .318.026.45.026 3.255 0 6.535-1.772 6.535-5.37 0-2.567-1.693-3.81-3.995-4.313"
        style="stroke-width: 0.26458332"
      />
      <path
        d="M393.6 58.4V40.2h-13.2V1.6h-20.7v56.8z"
        transform="matrix(.26458 0 0 .26458 -4.547 309.473)"
      />
      <path
        d="M39.956 309.658c-4.577 0-8.335 3.07-8.335 7.806 0 4.841 3.731 7.725 8.335 7.725 4.577 0 8.334-2.884 8.334-7.725 0-4.736-3.757-7.806-8.334-7.806m0 10.769c-1.667 0-2.805-1.19-2.805-2.884 0-1.588 1.085-2.937 2.805-2.937 1.746 0 2.804 1.35 2.804 2.937.027 1.693-1.137 2.884-2.804 2.884"
        style="fill: #da291c; stroke-width: 0.26458332"
      />
      <path
        d="M25.404 309.897V317.728l-4.63-7.831h-5.24v15.054h5.24v-7.62l4.63 7.62h5.239v-15.054z"
        style="fill: #da291c; stroke-width: 0.26458332"
      />
      <path
        d="M112.214 311.67a.977.977 0 0 1-.98-.98.96.96 0 0 1 .98-.979c.529 0 .979.424.979.953 0 .582-.424 1.005-.98 1.005m0-1.852a.88.88 0 0 0-.873.873.88.88 0 0 0 .874.873.88.88 0 0 0 .873-.873.848.848 0 0 0-.873-.873m.185 1.482-.159-.476h-.159v.476h-.264v-1.244h.397c.105 0 .211 0 .29.053.106.053.16.185.16.344 0 .159-.054.265-.212.344l.211.503zm-.185-1.006h-.16v.318h.16c.132 0 .185-.053.185-.159 0-.106-.053-.159-.185-.159"
        style="fill: #221f1f; stroke-width: 0.26458332"
      />
    </g>
  </g>
</svg>
