<svg xmlns="http://www.w3.org/2000/svg" width="200" height="34" fill="none">
  <path
    fill="#C5A112"
    fill-rule="evenodd"
    d="M89.124 17.959c9.395.575 17.758-4.969 20.853-10.477l.117-.211-.227-.066-.731-.218-.147-.044-.08.131-.293.496a24.352 24.352 0 0 1-7.236 6.169 24.463 24.463 0 0 1-9.058 2.938c-2.715.262-4.99-.183-6.088-1.188a2.274 2.274 0 0 1-.782-1.785c.219-5.828 9.884-9.26 16.674-9.872a866.64 866.64 0 0 1 19.126-.036A27.5 27.5 0 0 0 134.759.78L135 .64l-.212-.175-.454-.386-.102-.08-.117.058c-3.271 1.763-7.602 1.85-11.4 1.793a141.454 141.454 0 0 0-21.628.655c-8.107 1.326-14.187 4.597-16.69 8.99a4.616 4.616 0 0 0 .184 4.117c.797 1.29 2.37 2.098 4.558 2.338"
    clip-rule="evenodd"
  />
  <path
    fill="#C5A112"
    fill-rule="evenodd"
    d="M111.406 20.468v-.088c.268-1.18.71-2.313 1.309-3.364l.178-.36c.429-.25.969-.507 1.539-.779 1.612-.734 3.44-1.623 3.81-2.938l.037-.147-.133-.073-.185-.088a1.89 1.89 0 0 1-.289-.162l-.081-.073a.502.502 0 0 0-.111 0c-.496.132-.94.3-1.265.418l-.126.052c-.696.426-1.287.866-1.872 1.292-1.539 1.139-2.878 2.123-5.423 2.402a54.105 54.105 0 0 1 12.969-11.825L122 4.58l-.222-.169-.459-.338-.096-.073-.111.059c-5.748 2.901-11.334 7.345-16.601 13.302-6.489 1.418-11.26 3.158-15.019 5.465l-.184.117.133.17.48.623.104.133.148-.088a47.55 47.55 0 0 1 13.058-5.069 79.94 79.94 0 0 1-9.448 9.219c-3.832 2.982-10.638 6-17.193 4.678-.999-.183-2.027-.976-2.086-1.593 0-.434.414-.735.82-.867.423 0 .852.044 1.266.066.414.022.651.044.962.051h.059a2.592 2.592 0 0 0 1.709-1.175 1.052 1.052 0 0 0 0-.918 1.666 1.666 0 0 0-1.354-.779c-1.524-.14-3.588 1.102-4.224 1.785a2.225 2.225 0 0 0-.607 2.424c.503 1.227 2.264 2.138 4.483 2.321a30.15 30.15 0 0 0 18.496-4.745c4.705-3 8.748-6.918 11.881-11.517l3.167-.735a12.223 12.223 0 0 0-2.264 4.173l-.096.323.325-.074a7.435 7.435 0 0 0 2.22-.86l.059-.021ZM133.325 19.921l.507-.233-.544-.131-.387-.066a5.491 5.491 0 0 1-.842-.182c-.037-1.457 1.833-2.79 3.352-3.882l.135-.095.454-.328h-.566c-3.681-.102-5.283 1.632-5.96 3.125l-12.279 7.918 9.172-9.55.357-.378-.521.05-3.524.336h-.075l-.052.05-13.202 14.073L109 31l.507-.051 3.315-.306h.075l.044-.05 1.55-1.458 15.087-9.797c.082.172.182.336.298.488h.037a3.794 3.794 0 0 0 3.383.037M148.46 14.16c.331-.029.664.02.973.143a.692.692 0 0 1 .037.564c-2.079 2.566-6.024 4.77-11.711 6.553 2.803-2.701 6.265-5.959 10.723-7.26h-.022Zm14.99-2.58c.798-.693 1.625-1.407 1.545-2.257v-.158c-.11-.21-.484-.18-.732-.12-1.742.33-2.394 2.143-2.716 3.069L150.348 20.6l-.197.15-.103.068a53.339 53.339 0 0 1-12.077 6.47l-.637.188c-1.237.376-2.927.887-3.938.323l-.08-.143a2.936 2.936 0 0 1-.125-.255A9.836 9.836 0 0 1 136.163 23a66.366 66.366 0 0 0 10.892-4.462c1.31-.752 4.311-2.595 3.959-4.611a1.19 1.19 0 0 0-.332-.449 1.157 1.157 0 0 0-.495-.243 5.991 5.991 0 0 0-2.196 0c-1.626.35-3.213.871-4.735 1.557-2.811 1.128-11.836 5.597-12.238 11.66-.042.322-.009.65.097.956.105.306.28.582.51.805.732.715 2.123.955 3.879.67 6.068-.926 11.192-4.424 15.276-7.245l.212-.143.096-.068 10.247-8.02a15.234 15.234 0 0 1-2.672 7.405 14.66 14.66 0 0 1-5.965 4.979c-.461.21-1.998.85-2.818.255a.578.578 0 0 1 0-.203v-.067h.036c.066-.068.088-.083.118-.083a4.393 4.393 0 0 0 1.676-.753 1.315 1.315 0 0 0 .197-1.068 1.167 1.167 0 0 0-.294-.412 1.127 1.127 0 0 0-.438-.242c-.437-.152-.9-.211-1.361-.173-1.559.413-2.196 1.504-2.079 2.4.073.752.732 1.7 2.335 1.79 4.765 0 9.142-3.047 11.448-5.642 2.115-2.513 1.376-5.432.732-8.012l-.132-.527c.33-.528.755-.988 1.252-1.354M182.158 23.647a1.01 1.01 0 0 1-.661-.739c-.204-1.004 1.213-2.577 2.064-3.515l.421-.473c3.118-3.552 6.977-7.385 11.919-8.715.412-.102.84-.117 1.257-.044.168.126.415.318.429.45v.06a.64.64 0 0 1 0 .738 4.992 4.992 0 0 0-2.696 2.651 2.522 2.522 0 0 0 .102 1.884l-.654.627a34.623 34.623 0 0 1-7.268 5.761c-1.272.65-3.191 1.64-4.927 1.3l.014.015ZM200 16.77l-.065-.665v-.221l-.211.051a5.348 5.348 0 0 1-3.118-.118c1.097-1.152 2.849-3.692 2.369-5.369a2.12 2.12 0 0 0-.681-.977 2.072 2.072 0 0 0-1.092-.448h-.036a8.806 8.806 0 0 0-2.261.125c-5.705 1.477-11.141 4.978-14.171 9.15l-.102.163-.487.325c-1.192.79-2.311 1.544-3.372 2.356-2.595 1.588-6.541 3.98-10.175 3.862-.341 0-.552-.14-.639-.34-.146-.332 0-1.122 1.366-2.953l.043-.067a54.26 54.26 0 0 1 9.158-8.36c1.584-1.07 3.895-2.275 5.923-1.972.097.096.175.208.232.332a.742.742 0 0 1-.16.429 2.876 2.876 0 0 0-.247.148.966.966 0 0 1-.37.17 4.831 4.831 0 0 0-2.384.841h-.036v.037a1.123 1.123 0 0 0 .138 1.477l.043.052h.066l.247.067a3.2 3.2 0 0 0 1.083.147c1.976-.347 3.197-1.979 3.059-3.227-.116-1.064-1.112-1.654-2.674-1.58-4.906.598-9.07 3.22-11.112 4.726-2.261 1.669-6.091 4.911-6.323 7.91a3.4 3.4 0 0 0 .21 1.475c.179.47.46.892.822 1.235.69.344 1.457.494 2.224.436 4.549-.598 8.844-3.065 12.18-5.414a3.485 3.485 0 0 0-.131 1.898 2.7 2.7 0 0 0 .538 1.029c.251.298.564.537.916.7a7.159 7.159 0 0 0 4.68-.31 27.47 27.47 0 0 0 10.248-7.246c1.276.6 2.73.679 4.062.222l.153-.044.087-.052Z"
    clip-rule="evenodd"
  />
  <path
    fill="#000"
    fill-rule="evenodd"
    d="M71.272 8.306h19.016l.634 4.976h-.53a6.704 6.704 0 0 0-2.572-3.395 8.2 8.2 0 0 0-4.465-1.089h-.936a5.404 5.404 0 0 0-3.094.672 2.61 2.61 0 0 0-.733 1.004 2.64 2.64 0 0 0-.188 1.233v4.551h2.21a7.93 7.93 0 0 0 3.684-.642 3.34 3.34 0 0 0 1.043-.97c.274-.394.462-.845.549-1.32h.5V20.1h-.5a5.338 5.338 0 0 0-.892-2.052 3.14 3.14 0 0 0-1.57-.984 10.747 10.747 0 0 0-2.755-.284h-2.277V22.6a4.89 4.89 0 0 0 .325 2.014 1.753 1.753 0 0 0 1.083.992 6.68 6.68 0 0 0 2.21.284h1.54a8.648 8.648 0 0 0 4.303-1.127 19.194 19.194 0 0 0 4.42-3.506l.133-.142H93l-1.975 5.453H71.271v-.41a4.348 4.348 0 0 0 2.623-1.111c.42-.44.634-1.291.634-2.56v-10.1a6.241 6.241 0 0 0-.17-1.768 1.896 1.896 0 0 0-.61-.932 4.565 4.565 0 0 0-2.477-.97v-.41Zm18.132 2.238-.368-1.783h-2.402c.516.164 1.01.39 1.474.671.464.319.89.692 1.267 1.112h.03Zm-4.207 6.907v-1.745a6.963 6.963 0 0 1-.737.47c-.355.15-.72.28-1.09.388a4.95 4.95 0 0 1 1.827.887Zm1.518 8.46h3.11l.935-2.492c-.376.343-.78.664-1.186.97-.427.309-.875.585-1.341.828-.494.258-1 .49-1.518.694Zm-12.452-.388-.656.388h4.885l-.648-.388a2.575 2.575 0 0 1-.737-.537.895.895 0 0 1-.17-.597v-.298a.375.375 0 0 1 0-.15V10.955a.492.492 0 0 1 0-.164v-.283a.94.94 0 0 1 .185-.62c.21-.218.46-.393.737-.514l.95-.56h-5.482l.95.56c.269.145.516.325.737.537.115.176.17.386.155.597.01.149.01.298 0 .447V23.92c.01.15.01.299 0 .448a.941.941 0 0 1-.154.596c-.215.22-.464.4-.737.538l-.015.022ZM66.504 13.11V27h-.5L47.648 11.335v8.951c-.019.806.053 1.612.214 2.402a5.05 5.05 0 0 0 .7 1.567 5.464 5.464 0 0 0 3.684 1.85v.41h-8.731v-.41a4.312 4.312 0 0 0 1.802-.905c.522-.44.935-1 1.204-1.631.19-.431.312-.89.361-1.358.079-.623.113-1.252.103-1.88v-9.526c-.63-.548-1.3-1.047-2.004-1.492a6.355 6.355 0 0 0-1.606-.62v-.41h6.491c.258.363.546.703.862 1.015.137.092.263.2.376.32.058.064.12.124.184.18.053.048.103.1.148.156l.191.157c.035.027.064.06.089.097L65.84 22.293V13.11a5.513 5.513 0 0 0-.434-2.32 3.099 3.099 0 0 0-1.386-1.388 7.005 7.005 0 0 0-2.505-.686v-.41h7.965v.41a3.729 3.729 0 0 0-2.387 1.276 5.752 5.752 0 0 0-.62 3.11l.03.008Zm-18.98-2.626L65.841 26.15v-2.097L50.17 10.626a9.37 9.37 0 0 1-1.724-1.835h-3.382c.9.446 1.737 1.01 2.49 1.678l-.029.015Zm19.518-1.693H63.83c.437.157.85.378 1.223.656.326.276.603.606.818.977.14-.322.307-.632.5-.925.198-.26.423-.498.671-.708ZM45.365 25.889h3.412a6.843 6.843 0 0 1-1.01-1.03 4.942 4.942 0 0 1-.648-1.074c-.173.4-.393.779-.656 1.126-.32.365-.678.693-1.068.977h-.03Zm-11.207-2.686-1.856-3.394h-8.636l-.936 1.715a4.697 4.697 0 0 0-.67 2.074c-.008.434.136.857.405 1.194.302.388.702.688 1.157.865a8.447 8.447 0 0 0 2.034.537v.41H16.99v-.395a6.3 6.3 0 0 0 2.704-1.492c.95-.986 1.749-2.11 2.372-3.334L29.436 8h.434l8.039 14.465c.044.03.066.052.066.067l.066.134.089.15.737 1.215a4.56 4.56 0 0 0 1.37 1.492 5.118 5.118 0 0 0 1.923.694v.41H31.52v-.41a9.799 9.799 0 0 0 1.939-.254c.803-.246 1.2-.664 1.2-1.26a3.758 3.758 0 0 0-.53-1.44l.03-.06Zm-10.197-3.894h7.994l-4.023-7.266-3.971 7.266Zm5.268-9.593-.95 1.753 6.432 11.6.17.298c.272.387.449.835.515 1.306a1.865 1.865 0 0 1-.818 1.275H39a6.029 6.029 0 0 1-1.304-1.298 15.75 15.75 0 0 1-1.29-2.021L29.23 9.716ZM19.032 25.888h3.396c-.318-.279-.59-.609-.803-.977a1.967 1.967 0 0 1-.213-.947 1.924 1.924 0 0 1 0-.366c-.288.479-.631.92-1.024 1.313a7.117 7.117 0 0 1-1.356 1.007v-.03Zm-8.79-8.123h-3.11v4.722a5.685 5.685 0 0 0 .2 1.723c.145.396.401.74.736.992.91.581 1.954.91 3.028.955v.41H0v-.41a4.348 4.348 0 0 0 2.623-1.111c.42-.44.634-1.291.634-2.56v-10.1a6.242 6.242 0 0 0-.17-1.768 1.896 1.896 0 0 0-.611-.932A4.792 4.792 0 0 0 0 8.716v-.41h.413l1.473.067H3.95c1.23 0 2.35 0 3.353-.12l2.32-.111a31.018 31.018 0 0 1 2.167-.082 12.519 12.519 0 0 1 6.123 1.26c.659.308 1.217.8 1.61 1.419.39.618.6 1.338.6 2.072 0 .871-.287 1.717-.818 2.403a5.362 5.362 0 0 1-2.276 1.715c-1.97.636-4.036.912-6.101.813l-.685.023Zm-3.11-5.968v5.378h2.749a9.416 9.416 0 0 0 4.045-.686 3.701 3.701 0 0 0 1.62-1.492c.382-.66.576-1.413.56-2.178a3.77 3.77 0 0 0-.363-1.73 3.72 3.72 0 0 0-1.11-1.366 6.084 6.084 0 0 0-3.876-1.149 5.602 5.602 0 0 0-1.989.299c-.48.146-.9.444-1.201.85a3.632 3.632 0 0 0-.457 2.052l.022.022Zm6.499 5.311a7.494 7.494 0 0 0 3.625-1.64 3.57 3.57 0 0 0 .92-1.235 3.61 3.61 0 0 0 .318-1.511 3.13 3.13 0 0 0-.582-1.85 4.431 4.431 0 0 0-1.658-1.343 8.577 8.577 0 0 0-2.579-.746c2.039.806 3.058 2.154 3.058 4.043.03.928-.242 1.84-.774 2.596a5.348 5.348 0 0 1-2.306 1.724l-.022-.038Zm-10.64 8.393-.655.387H7.22l-.649-.387a2.574 2.574 0 0 1-.736-.538.896.896 0 0 1-.17-.596v-.299a.377.377 0 0 1 0-.149V10.954a.49.49 0 0 1 0-.164v-.283a.949.949 0 0 1 .155-.575c.168-.204.377-.372.611-.492l.126-.067.935-.575H6.89c-1.017.052-1.93.082-2.74.082a64.58 64.58 0 0 1-2.056-.045l.884.508c.271.13.52.304.737.514.12.183.177.4.162.62.01.149.01.298 0 .447V23.92c.01.15.01.299 0 .448a.941.941 0 0 1-.155.596c-.213.221-.463.403-.737.538"
    clip-rule="evenodd"
  />
  <path
    fill="#fff"
    d="M66.492 27h-.523l-18.32-15.623v8.928c-.019.804.053 1.607.213 2.395.146.554.382 1.08.7 1.555a5.465 5.465 0 0 0 3.681 1.837v.44h-8.74V26.1a4.281 4.281 0 0 0 1.797-.895 4.34 4.34 0 0 0 1.2-1.62c.191-.43.315-.886.368-1.354.075-.622.11-1.248.103-1.874v-9.508a16.47 16.47 0 0 0-2.003-1.488 6.234 6.234 0 0 0-1.598-.61v-.439h6.502c.26.361.547.7.862 1.012.137.092.263.2.375.32l.118.112.067.067a.96.96 0 0 1 .147.156l.11.09.081.066c.034.028.064.06.089.097l14.1 12.03V13.14a5.36 5.36 0 0 0-.441-2.307 3.041 3.041 0 0 0-1.377-1.383 7.02 7.02 0 0 0-2.504-.677v-.44h7.997v.44a3.713 3.713 0 0 0-2.393 1.257 5.793 5.793 0 0 0-.611 3.095V27Zm-.508 0h.486V13.14a5.727 5.727 0 0 1 .596-3.11 3.671 3.671 0 0 1 2.386-1.286V8.35h-7.923v.394a6.975 6.975 0 0 1 2.496.677c.603.299 1.093.79 1.392 1.399.316.728.467 1.518.441 2.313v9.21L51.743 10.291l-.14-.111-.081-.06-.11-.096a1.438 1.438 0 0 0-.148-.157L51.19 9.8l-.11-.111a2.443 2.443 0 0 0-.368-.313 7.981 7.981 0 0 1-.862-1.011h-6.465v.394a5.979 5.979 0 0 1 1.598.617c.703.446 1.372.944 2.003 1.488v9.53c.006.626-.028 1.253-.103 1.875a4.6 4.6 0 0 1-.368 1.361 4.385 4.385 0 0 1-1.205 1.626 4.328 4.328 0 0 1-1.8.903v.395h8.719v-.395a5.466 5.466 0 0 1-3.682-1.845 4.94 4.94 0 0 1-.736-1.562 10.375 10.375 0 0 1-.221-2.403v-8.986L65.984 27Zm24.991-.402H71.226v-.439a4.343 4.343 0 0 0 2.614-1.1c.42-.432.626-1.288.626-2.545V12.42a6.329 6.329 0 0 0-.162-1.756 1.854 1.854 0 0 0-.61-.93 4.538 4.538 0 0 0-2.468-.96v-.438h19.035l.633 4.984h-.552a6.687 6.687 0 0 0-2.57-3.385 8.246 8.246 0 0 0-4.455-1.086h-.935a5.461 5.461 0 0 0-3.085.67 2.61 2.61 0 0 0-.728 1.002c-.159.389-.222.81-.185 1.23v4.523h2.209a7.91 7.91 0 0 0 3.681-.64c.412-.242.767-.57 1.041-.963.275-.393.462-.841.55-1.314h.523v6.778h-.523a5.34 5.34 0 0 0-.891-2.039 3.22 3.22 0 0 0-1.561-.982 10.874 10.874 0 0 0-2.754-.282h-2.26v5.772a4.934 4.934 0 0 0 .316 2.009 1.741 1.741 0 0 0 1.075.982c.716.215 1.462.31 2.209.283h1.539a8.766 8.766 0 0 0 4.3-1.124 19.49 19.49 0 0 0 4.418-3.496l.133-.149H93l-2.025 5.49Zm-19.726 0H90.96l1.966-5.423h-.567l-.132.141a19.114 19.114 0 0 1-4.418 3.497 8.693 8.693 0 0 1-4.308 1.13h-1.539a6.802 6.802 0 0 1-2.209-.282 1.77 1.77 0 0 1-1.09-.997 5.077 5.077 0 0 1-.316-2.016v-5.84h2.282c.929-.023 1.857.072 2.762.283.609.168 1.155.514 1.568.997.44.602.745 1.296.891 2.03h.486v-6.732h-.486a3.395 3.395 0 0 1-.55 1.316 3.355 3.355 0 0 1-1.04.968c-1.162.5-2.422.72-3.682.64h-2.21v-4.546c-.034-.42.03-.84.19-1.23.161-.388.412-.732.731-1.002a5.447 5.447 0 0 1 3.1-.676h.936a8.319 8.319 0 0 1 4.47 1.086 6.754 6.754 0 0 1 2.569 3.392h.508l-.626-4.947H71.25v.394c.886.068 1.734.39 2.444.93.292.248.507.576.619.945.135.577.19 1.17.162 1.763v10.073c0 1.257-.214 2.12-.634 2.559a4.395 4.395 0 0 1-2.621 1.108l.03.44Zm-29.064 0H31.508v-.439a9.014 9.014 0 0 0 1.93-.245c.794-.246 1.2-.662 1.2-1.25-.077-.51-.257-1-.53-1.436l-1.856-3.37h-8.579l-.927 1.704a4.637 4.637 0 0 0-.678 2.06c-.004.43.139.848.405 1.183.308.364.704.64 1.149.804.652.262 1.335.44 2.032.528v.439h-8.66v-.424a6.16 6.16 0 0 0 2.696-1.488 13.82 13.82 0 0 0 2.37-3.318L29.425 8h.45l8.04 14.425c.03.017.053.043.066.074a.66.66 0 0 0 .067.127c.02.053.047.103.08.148l.737 1.22a4.448 4.448 0 0 0 1.362 1.488c.588.36 1.242.596 1.922.692l.037.424Zm-10.655 0h10.633v-.394a5.252 5.252 0 0 1-1.914-.692 4.445 4.445 0 0 1-1.37-1.488l-.736-1.212a1.062 1.062 0 0 1-.089-.15.701.701 0 0 1-.066-.133.214.214 0 0 0-.059-.052l-8.04-14.462h-.42l-7.364 13.331a14.13 14.13 0 0 1-2.378 3.333 6.278 6.278 0 0 1-2.695 1.488v.38h8.63v-.395a8.558 8.558 0 0 1-2.04-.498 2.665 2.665 0 0 1-1.17-.826 1.872 1.872 0 0 1-.413-1.198c.06-.736.291-1.448.677-2.076l.935-1.71h8.616l1.862 3.384c.272.44.452.931.53 1.444 0 .602-.412 1.026-1.214 1.264a8.41 8.41 0 0 1-1.922.253l.007.41Zm-20.426-.022H0v-.439a4.344 4.344 0 0 0 2.614-1.101c.42-.431.626-1.287.626-2.544V12.419a6.363 6.363 0 0 0-.162-1.756 1.854 1.854 0 0 0-.611-.93A4.83 4.83 0 0 0 0 8.773v-.438h.412l1.473.067c.619 0 1.31.037 2.062.037 1.281 0 2.378-.037 3.35-.12l2.334-.14a27.07 27.07 0 0 1 2.165-.082c2.114-.103 4.22.33 6.127 1.257.52.248.978.61 1.34 1.061a3.915 3.915 0 0 1 .051 4.823 5.41 5.41 0 0 1-2.275 1.712 17.292 17.292 0 0 1-6.104.81H7.157v4.702c-.025.58.042 1.16.2 1.718.148.391.404.731.735.983.886.564 1.9.89 2.946.944l.066.469ZM.059 26.554h11.045v-.395a6.237 6.237 0 0 1-2.945-.944 2.229 2.229 0 0 1-.773-.997 5.544 5.544 0 0 1-.2-1.726v-4.724h3.8a17.175 17.175 0 0 0 6.009-.811 5.334 5.334 0 0 0 2.304-1.719 3.886 3.886 0 0 0 .825-2.41 3.658 3.658 0 0 0-.545-1.979 4.521 4.521 0 0 0-1.65-1.488A12.518 12.518 0 0 0 11.84 8.12c-.692 0-1.42 0-2.164.082l-2.342.156c-.972.082-2.07.12-3.35.12H1.922L.449 8.408H.044v.394a4.83 4.83 0 0 1 2.474.96c.293.248.507.576.619.945.135.577.19 1.17.162 1.763v10.02c0 1.258-.214 2.121-.633 2.56a4.395 4.395 0 0 1-2.607 1.108v.395Zm65.836-.38L47.59 10.552A11.25 11.25 0 0 0 45.1 8.87h-.043 3.468a9.573 9.573 0 0 0 1.723 1.83l15.67 13.391-.023 2.083ZM47.582 10.552l18.291 15.622v-2.113l-15.662-13.39a9.355 9.355 0 0 1-1.723-1.83h-3.35c.87.454 1.68 1.019 2.408 1.68l.036.03Zm42.244 15.377h-3.173.051c.52-.206 1.029-.44 1.525-.7.464-.24.91-.517 1.332-.825.442-.328.832-.64 1.186-.96l-.92 2.485Zm-3.055 0h3.04l.877-2.507c-.346.305-.737.61-1.149.93-.424.31-.873.586-1.34.825-.515.298-1.023.521-1.465.7l.037.052Zm-8.24 0h-4.956l.692-.41c.272-.138.52-.32.737-.535a.9.9 0 0 0 .154-.588V10.552a.952.952 0 0 0-.154-.595c-.222-.21-.47-.39-.737-.536l-.994-.58h5.567l-.994.58a2.467 2.467 0 0 0-.736.506c-.128.18-.192.396-.184.617v.29a.741.741 0 0 0 0 .157v12.93a.493.493 0 0 0 0 .14v.298c-.018.21.043.42.169.588.211.222.46.404.736.535l.7.447Zm-4.875 0h4.794l-.611-.372a2.46 2.46 0 0 1-.737-.536.861.861 0 0 1-.176-.602v-.298a.607.607 0 0 1 0-.149V10.991a.814.814 0 0 1 0-.164v-.283a.958.958 0 0 1 .191-.625c.21-.218.46-.393.736-.513l.913-.543h-5.441l.913.543c.267.146.515.326.736.536.115.178.169.39.155.602v13.822a.952.952 0 0 1-.155.603 3.106 3.106 0 0 1-.736.536l-.582.424Zm-24.83 0h-3.475a5.876 5.876 0 0 0 1.053-1.02c.274-.342.507-.717.692-1.115.167.383.385.74.648 1.064.295.378.631.723 1.002 1.026l.08.045Zm-3.408 0h3.35a6.94 6.94 0 0 1-.987-1.012 4.906 4.906 0 0 1-.64-1.049 5.557 5.557 0 0 1-.692 1.042 6.273 6.273 0 0 1-1.068.967l.037.052Zm-6.362 0h-4.477a1.843 1.843 0 0 0 .824-1.317 3.15 3.15 0 0 0-.515-1.302l-.17-.29-6.457-11.576.957-1.763 7.165 12.878c.372.707.803 1.382 1.288 2.016.366.494.803.93 1.296 1.294l.089.06Zm-4.418 0h4.344a6.518 6.518 0 0 1-1.274-1.28 15.44 15.44 0 0 1-1.288-2.016L29.261 9.771l-.935 1.725 6.428 11.569.17.29c.268.39.445.838.515 1.31a1.884 1.884 0 0 1-.84 1.212l.038.052Zm-12.143 0h-3.46a7.03 7.03 0 0 0 1.347-1.02 6.84 6.84 0 0 0 1.03-1.309v-.052.06a3.272 3.272 0 0 0 0 .357c-.004.328.072.653.222.945.215.367.485.699.802.982l.06.037Zm-3.38 0h3.321a3.891 3.891 0 0 1-.817-1.02 2.034 2.034 0 0 1-.206-.944v-.313c-.29.457-.63.88-1.016 1.258-.404.369-.846.693-1.318.967l.036.052Zm-11.781 0H2.312l.692-.41c.272-.138.52-.32.737-.535a.9.9 0 0 0 .154-.588V10.552a1.05 1.05 0 0 0-.162-.625 2.944 2.944 0 0 0-.736-.506l-.935-.528h.051c.862 0 1.554.044 2.055.044.802 0 1.723 0 2.739-.081h.64l-.964.595-.125.067a1.94 1.94 0 0 0-.611.49.922.922 0 0 0-.155.566v.29a.752.752 0 0 0 0 .156v12.9a.496.496 0 0 0 0 .141v.298c-.017.21.043.42.17.588.212.22.461.402.736.535l.736.447Zm-4.882 0h4.801l-.619-.372a2.46 2.46 0 0 1-.736-.536.861.861 0 0 1-.177-.602v-.298a.61.61 0 0 1 0-.149V10.991a.82.82 0 0 1 0-.164v-.283a.967.967 0 0 1 .162-.58c.17-.205.381-.373.619-.491l.118-.067.898-.55h-.56a54.632 54.632 0 0 1-2.739.081c-.493 0-1.17 0-2.01-.037l.847.484c.271.13.52.303.736.513.123.184.183.403.17.625v13.844a.952.952 0 0 1-.155.603 3.108 3.108 0 0 1-.736.536l-.619.424Zm29.579-6.606h-8.085l3.983-7.276 4.102 7.276Zm-7.99 0h7.953l-4.006-7.21-3.946 7.21Zm61.124-1.853a5.05 5.05 0 0 0-1.804-.863h-.037.037a8.45 8.45 0 0 0 1.09-.387c.257-.137.503-.293.736-.468l-.022 1.718Zm-1.774-.885a4.771 4.771 0 0 1 1.752.84v-1.673a6.631 6.631 0 0 1-.736.454c-.14.081-.516.215-1.016.379Zm-73.502.632H7.135v-5.37c-.057-.715.1-1.43.45-2.054a2.474 2.474 0 0 1 1.207-.856 5.916 5.916 0 0 1 1.995-.297 6.126 6.126 0 0 1 3.88 1.153c.475.358.856.827 1.112 1.365.256.539.38 1.132.362 1.73a4.213 4.213 0 0 1-.567 2.18 3.739 3.739 0 0 1-1.628 1.487 9.557 9.557 0 0 1-4.057.662Zm-2.732 0H9.89a9.543 9.543 0 0 0 4.035-.677 3.695 3.695 0 0 0 1.613-1.487c.384-.655.58-1.405.567-2.165a3.752 3.752 0 0 0-.365-1.722 3.71 3.71 0 0 0-1.108-1.358 6.125 6.125 0 0 0-3.866-1.146 5.872 5.872 0 0 0-1.988.298c-.475.15-.892.446-1.193.848a3.556 3.556 0 0 0-.449 2.038l.022 5.371Zm6.4 0 .102-.044a5.423 5.423 0 0 0 2.297-1.719 4.295 4.295 0 0 0 .737-2.581 3.927 3.927 0 0 0-.737-2.41 5.303 5.303 0 0 0-2.267-1.637h-.081.088a8.608 8.608 0 0 1 2.577.744c.66.311 1.23.787 1.657 1.383.387.536.594 1.182.589 1.845a3.608 3.608 0 0 1-.316 1.506 3.575 3.575 0 0 1-.914 1.232 7.599 7.599 0 0 1-3.623 1.644l-.11.037Zm.235-8.376A5.193 5.193 0 0 1 16 10.448c.505.703.764 1.556.736 2.425a4.28 4.28 0 0 1-.736 2.596 5.425 5.425 0 0 1-2.21 1.681 7.57 7.57 0 0 0 3.513-1.614c.39-.337.702-.756.916-1.228.213-.471.323-.984.321-1.502a3.161 3.161 0 0 0-.582-1.838 4.352 4.352 0 0 0-1.7-1.383 8.52 8.52 0 0 0-2.467-.76v.016Zm75.593 1.822a7.06 7.06 0 0 0-1.267-1.108 7.208 7.208 0 0 0-1.473-.67h-.066 2.482l.324 1.778Zm-2.725-1.8c.503.16.985.379 1.436.655.46.306.88.668 1.252 1.078l-.361-1.733H86.66Zm-20.816 1.659a3.844 3.844 0 0 0-.818-.975 4.91 4.91 0 0 0-1.215-.654h-.059 3.314c-.248.221-.47.471-.663.744-.196.29-.364.599-.5.922l-.06-.037Zm-1.981-1.644c.418.157.812.373 1.17.64.323.27.597.595.81.96.136-.318.302-.622.494-.908.193-.252.41-.483.648-.692h-3.122Z"
  />
</svg>
