<svg xmlns="http://www.w3.org/2000/svg" width="120" height="24">
  <path
    fill="#323232"
    fill-rule="evenodd"
    d="M114.687 23.95c-4.926 0-7.71-2.586-7.71-7.325V2.103L112.83 0h.31v3.396h6.37v4.84h-6.37v7.68c0 2.306 1.057 3.193 3.378 3.193 1.16 0 2.27-.178 3.482-.406v3.776c-.877.862-3.224 1.47-5.313 1.47zM91.425 11.302h6.912c0-2.255-1.006-3.65-3.327-3.65-1.96 0-3.353 1.268-3.585 3.65zM96.635 24c-7.583 0-11.58-3.624-11.58-10.822 0-6.411 3.868-10.44 9.903-10.44 6.267 0 10.084 3.978 9.49 12.873H91.555c.516 2.56 2.734 3.548 6.086 3.548 2.038 0 4.642-.43 5.958-.836v3.802C102.463 23.265 99.755 24 96.634 24zm-33.012-.406V4.942c2.683-1.166 6.835-2.205 10.265-2.205 6.138 0 8.614 3.016 8.614 8.034v12.823h-6.164V11.176c0-2.128-.928-3.092-3.095-3.092-1.393 0-2.63.304-3.456.609v14.901zm-22.23 0V4.942c2.682-1.166 6.834-2.205 10.264-2.205 6.138 0 8.614 3.016 8.614 8.034v12.823h-6.164V11.176c0-2.128-.928-3.092-3.095-3.092-1.392 0-2.63.304-3.455.609v14.901zm-12.715-4.713c2.476 0 3.895-1.775 3.895-5.5s-1.419-5.525-3.895-5.525-3.894 1.8-3.894 5.525c0 3.725 1.418 5.5 3.894 5.5zm0 5.119c-6.292 0-10.212-3.878-10.212-10.619s3.92-10.644 10.212-10.644S38.891 6.64 38.891 13.381 34.971 24 28.678 24zM7.866 24C4.616 24 1.11 22.96 0 21.668v-3.801c2.038.684 4.436 1.267 7.453 1.267 2.424 0 3.147-.532 3.147-1.394 0-2.838-10.574-.557-10.574-8.287 0-4.055 3.069-6.716 8.459-6.716 2.966 0 6.138.786 7.376 2.205v3.75c-1.47-.456-4.436-1.089-7.04-1.089-1.987 0-2.657.481-2.657 1.267 0 2.914 10.6.355 10.6 8.642 0 4.182-3.585 6.488-8.898 6.488z"
  />
</svg>
