<svg
  id="svg"
  xmlns="http://www.w3.org/2000/svg"
  xmlns:xlink="http://www.w3.org/1999/xlink"
  width="400"
  height="90.3"
  viewBox="0 0 400 90.32258064516128"
  role="img"
>
  <title>sylvia villegas (hand-written)</title>
  <path
    id="path0"
    d="M 36.2 24.2 C 27.3 26.6 26.9 30.1 35 34.5 C 45.1 40 47.4 45.8 40.8 49.1 C 30.8 53.9 15.4 45.4 15.4 35 L 15.4 32.3 L 14.2 32.3 C 9.4 32.3 10.3 40.3 15.9 47 C 26.2 59.5 49.7 57.5 49.6 44.1 C 49.6 39.1 45.2 34.3 36.5 29.9 C 34.4 28.8 34.4 28.8 36.3 27.9 C 39.6 26.4 43.6 27.2 46.7 30 C 49.8 32.9 50.8 33 51.1 30.2 L 51.4 28.2 L 49.7 26.6 C 46.5 23.8 41.3 22.9 36.2 24.2 M 69.7 27.6 C 68.3 28.1 67.7 29.3 67.2 32.3 C 66 39.4 64.2 43.7 61.5 46.2 C 57.6 49.8 56.5 45.9 58.8 36.7 C 60.2 31.1 60 29 58.1 28 C 55.7 26.7 54.8 28.2 53.4 35.1 C 50.6 48.7 53.4 55.2 60.9 53.1 L 62.1 52.7 L 61.8 53.9 C 60.6 59.9 55.8 70.9 52.6 75.1 C 47.5 81.8 42 81.6 38.6 74.7 C 36.8 71.2 36.7 69.4 37.9 62.6 L 38.1 61.3 L 36.8 61.3 C 33.2 61.3 32.4 73.7 35.6 78.8 C 40.5 86.5 49.5 87.5 55.3 81 C 61.5 74.1 64.3 67.3 69.9 45.4 C 73.5 31.5 73.9 27.6 71.7 27.6 C 71.5 27.6 71.2 27.5 70.9 27.4 C 70.6 27.4 70.1 27.4 69.7 27.6 M 83.4 15.2 C 81.5 17.1 74.6 43.1 74.6 48.4 C 74.6 52.9 75.9 54.8 79 54.8 C 81.8 54.8 83.2 50.2 80.5 49.9 C 79.5 49.8 79.5 49.7 79.7 48.1 C 80 46.2 83.9 31.2 86.2 22.9 C 87.6 18.1 87.8 17.2 87.4 16.2 C 86.7 14.2 84.8 13.7 83.4 15.2 M 108.6 24.6 C 105.3 26 103.6 28.3 101.5 34.1 C 98.2 42.9 93.9 50.5 92.1 50.5 C 91.2 50.5 91.8 45.4 93.8 37.8 C 96.2 28.2 96.4 26.9 95.4 25.8 C 93 23.5 91.1 25.5 89.4 31.9 C 88.7 34.6 87.8 38.3 87.2 40.1 C 85.2 47.3 86 54.3 88.9 56 C 94 59.1 99.6 53 104.8 38.8 C 105.7 36.4 106.8 33.7 107.3 32.7 L 108.2 31 L 108.2 32.2 C 108.2 32.8 107.7 35.3 107.1 37.6 C 105.7 43 105.3 49.1 106.2 51.9 C 108 57.3 114.3 57.8 119 53 L 120.6 51.4 L 121.9 52 C 124.5 53.4 128.5 52.7 131.9 50.4 L 133.8 49.1 L 134.8 51.3 C 138.4 58.9 150.1 55 155.7 44.2 C 156.8 41.9 157.5 38.7 156.8 38.7 C 156.2 38.7 154.7 39.9 151.2 43.1 C 140.4 53.3 136.9 51.4 140.8 37.5 C 142.5 31.4 142.1 28.6 139.5 29.3 C 138.9 29.4 138.4 29.2 137.5 28.4 C 135.3 26.3 131.9 25.5 129.3 26.5 C 125.7 27.8 118.8 39.3 118.3 44.7 C 117.8 48.9 117.1 49.8 113 50.7 L 111.1 51.2 L 111.1 49.1 C 111.1 45.9 111.7 42.5 113.3 36 C 115.1 29 115.3 26.6 113.9 25.2 C 112.8 24.1 110.4 23.8 108.6 24.6 M 114.6 14.7 C 113.3 15.7 113.3 17.2 114.7 18.7 C 116 20.2 118 20.3 119 19 C 121.2 16.3 117.3 12.6 114.6 14.7 M 133.4 31.3 C 137.9 36 132.6 47 125.8 47 C 122.4 47 123.1 44.2 128.7 34.8 C 131.5 30 131.9 29.7 133.4 31.3 M 213.3 22.4 C 210.5 23.5 208.8 23.5 207.3 22.6 C 204.4 20.6 203.1 21.9 201.8 27.7 C 200.4 34.2 197.8 39.7 194 44.4 C 188.2 51.6 187.1 49.3 189.4 34.5 C 191.1 23.3 191 22.2 188.6 22.2 C 186.2 22.2 185.6 23.4 184.3 30.8 C 181.2 47.2 182.5 53.8 188.9 54.4 C 195.2 55 204.3 42.5 206.3 30.5 L 206.5 28.9 L 208.2 29.2 C 209.1 29.3 210.4 29.2 211 29.1 C 211.7 28.9 212.2 28.8 212.2 28.8 C 212.2 28.9 211.4 31 210.4 33.5 C 208.3 39.1 207.8 41.7 207.9 45.2 C 208.4 54.5 219 55.9 223.3 47.3 C 225.5 42.7 224.9 42.3 220.4 45.2 C 212.2 50.4 211.1 45.5 217.4 31.5 C 220 25.8 220.1 25.2 219.7 23.8 C 218.9 21.5 216.9 21 213.3 22.4 M 223.8 10.8 C 221.7 11.4 221 13.3 222 15.4 C 223.5 18.2 228 16.8 228 13.5 C 228 11.2 226.1 10.1 223.8 10.8 M 239.9 9.4 C 239.5 9.8 238.8 11.3 238.3 12.7 C 237.9 14.1 235.3 20.7 232.6 27.4 C 226 43.6 225.2 46.6 226.4 50.5 C 227.9 55.6 233.7 54.5 233.7 49.1 C 233.7 48 233.6 48 232.6 48.2 C 230.5 48.7 231.8 44.1 237.4 31.2 C 242.1 20.3 244.4 13.9 244.5 12.1 C 244.6 9.2 241.6 7.5 239.9 9.4 M 256.7 9.1 C 256.1 9.3 255.5 10.3 255 11.6 C 254.6 12.8 252.2 17.8 249.8 22.8 C 244.3 33.7 243.3 36.5 243.1 41.3 C 242.6 52.5 250.2 57.3 258.4 50.8 L 260 49.5 L 261.2 50.4 C 263 51.6 265.4 51.4 267.5 49.9 C 271.7 47 271.8 42.6 267.6 44.6 C 264 46.3 263.5 45.7 265.9 42.2 C 274.3 29.6 276 24.5 272.5 22.6 C 266.3 19.3 258.6 28.2 257.9 39.2 C 257.6 43.7 257.1 44.8 255 46.4 C 251.8 48.7 250 48.5 248.9 45.7 C 247.5 41.9 248.4 38.7 255.3 24.6 C 261.1 12.7 261.5 11.3 259.4 9.5 C 258.2 8.5 257.9 8.4 256.7 9.1 M 284.2 25.2 C 279.2 28.2 273.1 39.8 274 44.6 C 274.6 48 278.2 50.1 282.8 49.7 C 284.4 49.6 285.7 49.5 285.7 49.6 C 285.7 49.7 285.4 50.5 285 51.3 C 284.6 52.2 284.2 53.6 284.1 54.4 C 282.8 62.8 271.6 73.8 264.5 73.8 C 258.8 73.8 256.1 70.4 254.7 61.5 C 254.4 60 254 60 252.9 61.4 C 250 65.3 253.3 75.6 258 77.1 C 258.7 77.3 259.9 77.8 260.6 78.3 C 262.9 79.7 268.2 79.4 272.2 77.6 C 279.2 74.6 286.9 65.2 289.8 56.3 C 290.3 54.6 291.8 50.8 293 47.8 C 298.9 33.8 299.7 24.7 294.8 26.5 C 293.9 26.9 293.7 26.8 292.9 26 C 290.3 23.7 287.3 23.4 284.2 25.2 M 289.2 30 C 289.2 30.8 289.6 32.1 290.1 33.1 C 292 36.5 289.7 42.7 286.1 43.7 C 282.1 44.9 279.6 44.5 279.6 42.5 C 279.6 40 284.6 31.7 287.2 29.8 C 289.1 28.4 289.2 28.4 289.2 30 M 310.7 26.1 C 305.2 28.8 298.2 39.8 298.2 45.8 C 298.2 52.8 304.8 54.6 310.7 49.3 L 312.2 47.9 L 312.2 50.8 C 312.2 59 320.7 59.5 324.8 51.6 C 326.2 48.8 325.4 48.6 320.5 50.6 C 317.3 52 317.4 52.1 318.2 47.6 C 318.6 45.6 319.3 42.1 319.7 39.8 C 320.1 37.5 320.7 34.7 321.1 33.5 C 322.3 30.3 322.1 28.6 320.6 27.3 C 318 25 313.9 24.5 310.7 26.1 M 315.3 31.1 C 316.2 34.7 313.6 40.8 310.1 43.6 C 302.1 49.9 301.8 44.8 309.5 34.4 C 312.9 29.9 314.7 28.9 315.3 31.1 M 339.6 24 C 329.3 26.6 326.3 34.4 333.2 40.8 C 335.1 42.6 335.2 42.8 334.6 43.2 C 322.7 51.7 322.2 60.2 333.6 60.2 C 341.9 60.2 347.1 54 345.3 46.4 C 344.5 42.7 345 42.2 351.8 39.6 C 354.8 38.5 354.7 38.5 355 40 C 355.3 41.8 356.3 42.3 359.5 42.3 C 363.6 42.3 363.9 42.6 363.7 46.8 C 363.6 50 363.7 50.2 364.5 51.1 C 367.1 53.6 369.4 52.2 369.9 47.8 C 370.4 42.6 372 40.7 375.3 41.5 C 377.9 42.1 378.8 42 379.8 41.1 C 381.2 39.6 380.8 36.8 379 35.7 C 377.9 35 378.4 34 380.7 32.4 C 382.5 31.1 382.8 28.9 381.1 28.5 C 378.2 28 376.7 27.9 374.2 28.5 C 370.4 29.3 370.2 29.2 365.9 27.2 C 361.6 25.2 359.6 24.9 358.4 26 C 357.5 26.9 357.4 29.4 358.4 31 L 359.2 32.2 L 357.3 32.6 C 354.3 33.3 349.7 35 345.4 37 C 340.8 39.1 340.4 39.1 338.2 37.2 C 334.6 34.3 334.4 33.3 336.6 31.4 C 339.7 28.7 341.9 28.2 343.2 29.7 C 345.1 31.9 348.7 30.7 348.7 27.9 C 348.7 25 343.9 23 339.6 24 M 339.8 47.4 C 341.3 51.7 336.1 56 330.9 54.6 C 329.2 54.2 332.3 50.2 336.3 47.6 C 338.9 45.9 339.2 45.9 339.8 47.4 M 268.1 29 C 267.3 31.2 263.8 36.1 263.8 34.9 C 263.8 33.4 264.9 31.2 266.5 29.4 C 268 27.7 268.6 27.6 268.1 29"
    stroke="none"
    fill="#000000"
    fill-rule="evenodd"
  ></path>
</svg>
